<svg width="50" height="34" viewBox="0 0 50 34" fill="none" xmlns="http://www.w3.org/2000/svg">
<path d="M12.656 33.896C10.3947 33.896 8.368 33.512 6.576 32.744C4.82667 31.976 3.41867 30.8453 2.352 29.352C1.328 27.8587 0.816 26.0453 0.816 23.912C0.816 21.736 1.328 19.944 2.352 18.536C3.41867 17.0853 4.848 15.9973 6.64 15.272C8.47467 14.5467 10.544 14.184 12.848 14.184H22.448V12.136C22.448 10.3013 21.8933 8.82933 20.784 7.72C19.6747 6.61067 17.968 6.056 15.664 6.056C13.4027 6.056 11.6747 6.58933 10.48 7.656C9.28533 8.72267 8.496 10.1093 8.112 11.816L1.968 9.832C2.48 8.12533 3.29067 6.58933 4.4 5.224C5.552 3.816 7.06667 2.68533 8.944 1.832C10.8213 0.978665 13.0827 0.551998 15.728 0.551998C19.824 0.551998 23.0453 1.59733 25.392 3.688C27.7387 5.77867 28.912 8.744 28.912 12.584V25.576C28.912 26.856 29.5093 27.496 30.704 27.496H33.392V33H28.464C26.9707 33 25.7547 32.616 24.816 31.848C23.8773 31.08 23.408 30.0347 23.408 28.712V28.52H22.448C22.1067 29.16 21.5947 29.9067 20.912 30.76C20.2293 31.6133 19.2267 32.36 17.904 33C16.5813 33.5973 14.832 33.896 12.656 33.896ZM13.616 28.456C16.2613 28.456 18.3947 27.7093 20.016 26.216C21.6373 24.68 22.448 22.5893 22.448 19.944V19.304H13.232C11.4827 19.304 10.0747 19.688 9.008 20.456C7.94133 21.1813 7.408 22.2693 7.408 23.72C7.408 25.1707 7.96267 26.3227 9.072 27.176C10.1813 28.0293 11.696 28.456 13.616 28.456ZM43.7695 33.896C42.2762 33.896 41.0175 33.4053 39.9935 32.424C39.0122 31.4427 38.5215 30.184 38.5215 28.648C38.5215 27.112 39.0122 25.8747 39.9935 24.936C41.0175 23.9547 42.2762 23.464 43.7695 23.464C45.2628 23.464 46.5002 23.9547 47.4815 24.936C48.5055 25.9173 49.0175 27.1547 49.0175 28.648C49.0175 30.184 48.5055 31.4427 47.4815 32.424C46.5002 33.4053 45.2628 33.896 43.7695 33.896Z" fill="#10069F"/>
</svg>
